<svg xmlns="http://www.w3.org/2000/svg" width="8.026" height="14.312" viewBox="0 0 8.026 14.312"><g transform="translate(7.231 14.227) rotate(-135)"><path d="M.562-.007l9-.106a.547.547,0,0,1,.556.556.578.578,0,0,1-.569.569l-9,.106A.547.547,0,0,1-.007.562.578.578,0,0,1,.562-.007Z" transform="translate(0 0)" fill="#fff"/><path d="M.562.007l9,.106a.578.578,0,0,1,.569.569.547.547,0,0,1-.556.556l-9-.106A.578.578,0,0,1,.007.562.547.547,0,0,1,.562.007Z" transform="translate(8.876 10.014) rotate(-90)" fill="#fff"/></g></svg>