<?xml version="1.0" encoding="UTF-8" standalone="no"?>
<svg
   xmlns:dc="http://purl.org/dc/elements/1.1/"
   xmlns:cc="http://creativecommons.org/ns#"
   xmlns:rdf="http://www.w3.org/1999/02/22-rdf-syntax-ns#"
   xmlns:svg="http://www.w3.org/2000/svg"
   xmlns="http://www.w3.org/2000/svg"
   version="1.1"
   id="svg2"
   width="180.42964"
   height="80.523438"
   viewBox="0 0 180.42964 80.523436">
  <metadata
     id="metadata8">
    <rdf:RDF>
      <cc:Work
         rdf:about="">
        <dc:format>image/svg+xml</dc:format>
        <dc:type
           rdf:resource="http://purl.org/dc/dcmitype/StillImage" />
        <dc:title></dc:title>
      </cc:Work>
    </rdf:RDF>
  </metadata>
  <defs
     id="defs6" />
  <g
     id="g10"
     transform="translate(-214.03607,-62.682396)">
    <path
       style="fill:#000000;stroke-width:0.32"
       d="m 284.62056,143.00137 c -4.84721,-1.2228 -8.26861,-5.55592 -8.3317,-10.55191 -0.0328,-2.59438 0.45204,-4.30426 1.78102,-6.2816 3.8602,-5.74345 12.06391,-6.54897 16.94617,-1.66394 2.30867,2.30998 2.9615,4.02387 2.96555,7.78554 0.003,2.88555 -0.0841,3.36617 -0.88727,4.89099 -1.85707,3.52558 -5.27066,5.76737 -9.13254,5.99756 -1.17494,0.07 -2.67849,-0.009 -3.34123,-0.17664 z m 4.52758,-7.87373 c 1.67657,-1.17432 1.95363,-3.88891 0.53312,-5.22341 -2.47434,-2.32452 -6.21576,-0.58315 -5.81229,2.70523 0.30645,2.49766 3.28203,3.91702 5.27917,2.51818 z m 70.71893,7.78056 c -3.31343,-0.93838 -6.22068,-3.66048 -7.46929,-6.99359 -0.79071,-2.11074 -0.59328,-6.27973 0.39254,-8.28933 1.16505,-2.37496 2.7927,-4.01568 5.12125,-5.16238 1.9128,-0.94196 2.4283,-1.05344 4.87131,-1.05344 2.44159,0 2.95953,0.11185 4.87054,1.05176 3.93076,1.9333 6.07902,5.41259 6.06836,9.82824 -0.0111,4.60561 -2.39718,8.24667 -6.63175,10.11982 -1.83242,0.81057 -5.28134,1.0488 -7.22296,0.49892 z m 5.23341,-8.19249 c 0.89722,-0.80167 1.04505,-1.14487 1.04505,-2.42625 0,-1.28138 -0.14783,-1.62458 -1.04505,-2.42625 -0.78259,-0.69924 -1.36397,-0.93375 -2.31495,-0.93375 -0.95098,0 -1.53236,0.23451 -2.31495,0.93375 -0.89722,0.80167 -1.04505,1.14487 -1.04505,2.42625 0,1.28138 0.14783,1.62458 1.04505,2.42625 0.78259,0.69924 1.36397,0.93375 2.31495,0.93375 0.95098,0 1.53236,-0.23451 2.31495,-0.93375 z M 254.30553,123.97437 v -5.60491 h -1.13528 c -2.55479,0 -3.67033,-3.24361 -1.76933,-5.14461 l 0.93538,-0.93539 h 10.12051 c 11.11589,0 11.56168,-0.0682 12.31372,-1.88377 0.48691,-1.1755 0.19679,-2.65241 -0.67634,-3.44305 -0.61291,-0.55501 -1.63064,-0.60348 -15.81492,-0.75318 l -15.15986,-0.16 -0.87966,-0.88 c -1.22772,-1.22818 -1.22764,-3.09198 1.9e-4,-4.32 l 0.87986,-0.880004 25.7807,-0.16 25.7807,-0.16 0.77217,-0.897843 c 1.02102,-1.187207 1.021,-2.777155 -6e-5,-3.964314 l -0.77223,-0.897843 -39.53896,-0.16 -39.53896,-0.16 -0.67297,-0.67304 c -0.37013,-0.370173 -0.74917,-1.24121 -0.84231,-1.935635 -0.14039,-1.046685 -0.0224,-1.437229 0.68996,-2.283827 l 0.85932,-1.021236 47.16694,-0.08313 47.16694,-0.08313 0.87997,-0.88 c 1.22808,-1.228122 1.2281,-3.091843 5e-5,-4.32 l -0.87993,-0.880002 -37.5128,-0.16 c -20.63204,-0.088 -37.70749,-0.285578 -37.94545,-0.439066 -0.84768,-0.546764 -1.38749,-2.409078 -1.02056,-3.520883 0.73329,-2.221904 -0.55655,-2.120051 26.84753,-2.120051 17.04616,0 24.8908,-0.107178 25.41774,-0.347267 1.93929,-0.883597 2.31093,-3.774653 0.65289,-5.078867 -0.81139,-0.63824 -1.20519,-0.653866 -16.47838,-0.653866 -16.66409,0 -17.3622,-0.05965 -18.16081,-1.551872 -0.60081,-1.122637 -0.41008,-2.817651 0.42651,-3.790285 l 0.77226,-0.897843 41.78774,-0.08353 41.78773,-0.08353 v 28.483526 28.483528 h 1.92 1.92 v -21.439998 -21.44 h 13.89677 13.89678 l 0.64881,0.824838 c 0.57116,0.7261 5.84352,6.262484 17.80364,18.695162 1.94707,2.024 4.50448,4.687998 5.68315,5.919998 l 2.14303,2.24 0.004,12.56 0.004,12.56 -8.56,-3.2e-4 -8.56,-3.2e-4 -0.54807,-1.86523 c -0.76843,-2.61514 -2.80528,-5.51409 -5.07096,-7.21723 -5.98864,-4.50174 -14.0332,-3.93921 -19.32366,1.35126 -1.84523,1.84523 -3.52256,4.7152 -3.88506,6.64746 l -0.20366,1.08438 h -23.28877 -23.28877 l -0.20348,-1.08463 c -0.6382,-3.40189 -4.36741,-7.88989 -7.97347,-9.59583 -8.16526,-3.86279 -17.93496,0.53203 -20.54154,9.24046 l -0.38313,1.28 -9.1648,0.0849 -9.16481,0.0849 z M 376.8151,93.489456 c -5.85894,-6.116 -10.80043,-11.225795 -10.98109,-11.355101 -0.18067,-0.129305 -4.54048,-0.237305 -9.68848,-0.24 l -9.36,-0.0049 v 11.36 11.360005 h 20.34109 20.3411 z"
       id="path837" />
  </g>
</svg>
