<?xml version="1.0" encoding="UTF-8" standalone="no"?>
<svg
   xmlns:dc="http://purl.org/dc/elements/1.1/"
   xmlns:cc="http://creativecommons.org/ns#"
   xmlns:rdf="http://www.w3.org/1999/02/22-rdf-syntax-ns#"
   xmlns:svg="http://www.w3.org/2000/svg"
   xmlns="http://www.w3.org/2000/svg"
   xmlns:sodipodi="http://sodipodi.sourceforge.net/DTD/sodipodi-0.dtd"
   xmlns:inkscape="http://www.inkscape.org/namespaces/inkscape"
   version="1.1"
   id="svg2"
   width="479.99954"
   height="479.5"
   viewBox="0 0 479.99954 479.5"
   sodipodi:docname="design-tool.svg"
   inkscape:version="1.0.1 (3bc2e813f5, 2020-09-07)">
  <metadata
     id="metadata8">
    <rdf:RDF>
      <cc:Work
         rdf:about="">
        <dc:format>image/svg+xml</dc:format>
        <dc:type
           rdf:resource="http://purl.org/dc/dcmitype/StillImage" />
        <dc:title></dc:title>
      </cc:Work>
    </rdf:RDF>
  </metadata>
  <defs
     id="defs6" />
  <sodipodi:namedview
     pagecolor="#ffffff"
     bordercolor="#666666"
     borderopacity="1"
     objecttolerance="10"
     gridtolerance="10"
     guidetolerance="10"
     inkscape:pageopacity="0"
     inkscape:pageshadow="2"
     inkscape:window-width="1920"
     inkscape:window-height="1018"
     id="namedview4"
     showgrid="false"
     fit-margin-top="0"
     fit-margin-left="0"
     fit-margin-right="0"
     fit-margin-bottom="0"
     inkscape:zoom="0.5437069"
     inkscape:cx="0.40510578"
     inkscape:cy="131.26443"
     inkscape:window-x="-6"
     inkscape:window-y="-6"
     inkscape:window-maximized="1"
     inkscape:current-layer="g10" />
  <g
     inkscape:groupmode="layer"
     inkscape:label="Image"
     id="g10"
     transform="translate(-552.18665,-11.265598)">
    <path
       style="fill:#000000"
       d="m 554.6412,488.31105 -2.45455,-2.45454 V 358.7656 231.67469 l 2.45455,-2.45454 c 1.61162,-1.61162 3.58473,-2.45455 5.74556,-2.45455 3.03731,0 13.02401,9.73299 129.54545,126.25444 116.52145,116.52144 126.25444,126.50814 126.25444,129.54545 0,2.16083 -0.84293,4.13395 -2.45455,5.74556 l -2.45454,2.45455 H 684.18665 557.09575 Z M 788.18665,474.5139 c 0,-0.13844 -49.5,-49.75018 -110,-110.2483 l -110,-109.99659 V 364.5173 474.7656 h 110 c 60.5,0 110,-0.11327 110,-0.2517 z M 602.6412,440.31105 600.18665,437.85651 V 394.7656 351.67469 l 2.45455,-2.45454 c 1.60898,-1.60898 3.58527,-2.45455 5.73684,-2.45455 2.99129,0 7.02937,3.74707 45.54545,42.26316 38.51609,38.51608 42.26316,42.55417 42.26316,45.54545 0,2.15158 -0.84557,4.12787 -2.45455,5.73684 l -2.45454,2.45455 h -43.09091 -43.0909 z m 65.54545,-13.80266 c 0,-0.14147 -11.7,-11.95072 -26,-26.24279 l -26,-25.98558 v 26.24279 26.24279 h 26 c 14.3,0 26,-0.11575 26,-0.25721 z m 132,8.29004 v -8.03283 l 65.75,-0.006 c 44.86719,-0.004 67.02044,-0.35624 69.75,-1.10966 5.37785,-1.4844 13.90036,-10.00691 15.38476,-15.38476 0.60725,-2.2 1.1066,-6.5875 1.10966,-9.75 l 0.006,-5.74958 h -93.54545 -93.54546 l -2.45454,-2.45455 -2.45455,-2.45454 V 354.7656 319.67469 l 2.45455,-2.45454 2.45454,-2.45455 h 93.54546 93.54545 v -82.23828 -82.23828 l -16,15.97656 -16,15.97656 v 55.80717 55.80718 l -2.45455,2.45454 -2.45454,2.45455 h -91.09133 -91.09091 l -2.45454,-2.45455 c -2.4247,-2.4247 -2.45455,-2.67396 -2.45455,-20.5 V 257.7656 h -3.38813 c -5.08321,0 -20.19028,-4.63686 -28.11187,-8.62846 -23.05851,-11.61893 -39.42767,-32.35739 -46.08246,-58.3829 -3.00111,-11.73672 -2.54642,-31.63571 0.9919,-43.40972 4.81293,-16.01539 11.64663,-27.7077 22.55868,-38.59744 11.61007,-11.586323 25.82684,-19.472018 42.66907,-23.667498 10.20199,-2.541367 30.3693,-2.271022 40.86281,0.54777 24.69829,6.634515 45.53951,23.338918 56.62375,45.384388 l 3.89857,7.75386 h 29.24378 29.24377 l 37.74506,-37.75487 37.74507,-37.754875 -0.006,-7.995129 c -0.003,-4.397321 -0.50199,-9.795129 -1.10924,-11.995129 -1.4844,-5.377855 -10.00691,-13.900357 -15.38476,-15.38476 -5.65333,-1.560441 -281.34667,-1.560441 -287,0 -5.37785,1.484403 -13.90035,10.006905 -15.38476,15.38476 -0.7731,2.800876 -1.10575,35.701829 -1.10966,109.750003 l -0.006,105.75 h -8.02153 -8.02153 l 0.27153,-108.80249 0.27153,-108.802501 c 5.83666,-19.195962 15.98477,-26.520906 30,-29.895011 v 0 h 145.5 145.5 l 6.74075,3.193133 c 11.70748,5.545898 21.00641,17.275169 22.49513,28.374368 0.2901,2.162874 0.7557,3.932498 1.03467,3.932498 0.27896,0 4.08485,-3.418058 8.45752,-7.595684 10.24913,-9.791963 14.75232,-11.902038 25.2719,-11.841769 9.3364,0.05349 15.5199,2.653597 21.644,9.101055 6.1859,6.512599 8.2453,11.685247 8.2955,20.836398 0.072,13.170713 -0.3365,13.741996 -33.98148,47.508773 l -29.45799,29.56459 v 90.21332 90.21332 h 29.54545 29.54542 l 2.4546,2.45455 2.4545,2.45454 v 35.09091 35.09091 l -2.4545,2.45454 -2.4546,2.45455 h -29.40671 -29.40675 l -0.51662,9.06067 c -0.44481,7.80139 -1.0179,10.07496 -4.12342,16.35856 -4.3627,8.82732 -10.25646,14.55706 -19.45776,18.91625 l -6.67961,3.16452 -68.75,0.28283 -68.75,0.28282 z M 1016.1866,354.7656 v -24 h -8 -8 v 8 8 h -7.99995 -8 v -8 -8 h -8 -8 v 8 8 h -8 -8 v -8 -8 h -8 -8 v 8 8 h -8 -8 v -8 -8 h -8 -8 v 8 8 h -8 -8 v -8 -8 h -8 -8 v 8 8 h -8 -8 v -8 -8 h -8 -8 v 8 8 h -8 -8 v -8 -8 h -8 -8 v 8 8 h -8 -8 v -8 -8 h -8 -8 v 24 24 h 120 119.99995 z M 904.18665,240.53436 v -42.23124 l -9.88927,9.85217 -9.88928,9.85217 -22.22464,4.45888 c -12.22355,2.45239 -23.29269,4.19083 -24.59808,3.8632 -1.30538,-0.32763 -3.1397,-1.76517 -4.07626,-3.19454 -1.63598,-2.49682 -1.5302,-3.48744 2.6945,-25.23412 l 4.39732,-22.63528 9.98275,-10.25 9.98275,-10.25 H 841.8588 823.15115 l 0.63376,10.75 c 2.51542,42.66705 -24.91412,79.72041 -67.16051,90.7242 -3.22187,0.83919 -7.3384,1.5258 -9.14785,1.5258 h -3.2899 v 12.5 12.5 h 80 80 z M 731.04743,140.67669 c 2.21915,-1.79643 4.37043,-1.91109 35.85699,-1.91109 29.55844,0 33.42764,-0.17868 32.91297,-1.5199 -1.54072,-4.01505 -9.07369,-13.66515 -14.98031,-19.1905 -7.71297,-7.2151 -16.81707,-12.55322 -27.48378,-16.11489 -6.71526,-2.242263 -9.34192,-2.559653 -21.16665,-2.557673 -11.98881,0.002 -14.39552,0.30266 -21.5,2.685923 -19.8667,6.66444 -34.01419,18.87805 -43.08676,37.19704 -10.11485,20.42354 -10.01311,41.98042 0.29955,63.46818 3.89984,8.12582 5.83729,10.75317 13.66564,18.53176 11.61533,11.54149 23.3207,17.84505 37.69676,20.3004 l 4.42481,0.75574 0.5,-49.86695 0.5,-49.86695 z m 29.78959,97.64193 c 9.92678,-3.60322 17.19173,-8.39536 25.85262,-17.05302 9.13184,-9.12843 14.38679,-17.5003 18.20303,-29 2.30323,-6.94043 2.66407,-9.72181 2.72442,-21 0.0383,-7.15 -0.25382,-13.7875 -0.64906,-14.75 -0.66261,-1.61363 -3.13672,-1.75 -31.75,-1.75 h -31.03138 v 43.86349 43.86348 l 5.15882,-0.93765 c 2.83735,-0.5157 8.00855,-1.97204 11.49155,-3.2363 z m 96.73408,-31.08796 c 2.55208,-0.38271 4.8394,-1.01824 5.08293,-1.41228 0.24353,-0.39405 -1.73377,-2.86028 -4.39401,-5.48051 -2.66024,-2.62024 -5.05592,-4.38342 -5.32374,-3.91817 -0.26783,0.46524 -0.79505,2.6459 -1.17161,4.8459 -0.37656,2.2 -0.93759,4.85557 -1.24674,5.90127 -0.4123,1.39464 -0.16569,1.74916 0.92547,1.33045 0.81815,-0.31396 3.57562,-0.88395 6.1277,-1.26666 z m 81.11412,-66.46363 57.9921,-57.998568 -10.24785,-10.247847 -10.24784,-10.247847 -58.23756,58.237552 -58.23755,58.23756 9.9713,10.00886 c 5.48422,5.50487 10.2062,10.00886 10.4933,10.00886 0.2871,0 26.61844,-26.09936 58.5141,-57.99857 z m 73.38338,-73.519773 c 5.6616,-6.448249 5.5774,-14.488974 -0.2125,-20.278834 -6.0774,-6.077431 -15.28263,-5.553096 -21.62139,1.231568 l -2.45194,2.624421 9.93318,9.970593 c 5.46325,5.483825 10.23245,9.970592 10.59835,9.970592 0.3658,0 2.0553,-1.583253 3.7543,-3.51834 z M 648.18665,50.765597 v -8 h 8 8 v 8 8 h -8 -8 z m 32,0 v -8 h 8 8 v 8 8 h -8 -8 z m 32,0 v -8 h 8 8 v 8 8 h -8 -8 z"
       id="path837"
       sodipodi:nodetypes="ccccsssssccccsscccssccccsssssccccsscccssccsssccccccccccccccccccccccsscssssssssccccccssssccccccccccsssssscscccccccccccccssscccccccccccccccccccccccccccccccccccccccccccccccccccccccccccccccccccccccccsssscccccsssccccccssssssssssscccssssssscccssssssssssscccccsssssscsssccccccccccccccccccccccccccc" />
  </g>
</svg>
