<svg width="931.62" height="566.49" version="1.1" viewBox="0 0 931.62 566.49" xmlns="http://www.w3.org/2000/svg">
<g transform="translate(-1445.4 -818.64)">
<path d="m2139.5 1383.4c-28.597-5.2885-60.886-18.445-87.857-35.798l-8.9236-5.7415 25.364-18.958c45.962-34.356 77.346-61.602 114.09-99.047 36.322-37.019 64.684-71.681 90.954-111.16 14.474-21.749 36.096-58 34.595-58-0.3548 0-6.0726 7.65-12.706 17-70.05 98.736-170.42 189.33-260.43 235.07-10.038 5.1009-18.57 8.7599-18.958 8.1311-4.1715-6.7496-14.485-43.495-18.276-65.118-3.8777-22.113-4.2527-57.775-0.7906-75.175 6.65-33.422 20.206-57.225 45.355-79.641 30.357-27.057 69.386-46.42 133.59-66.273 75.356-23.302 99.204-33.016 128-52.135 20.416-13.555 41.553-34.874 54.276-54.742 3.8816-6.0617 7.4293-11.042 7.8837-11.068 1.4237-0.0803 6.4395 26.516 8.4149 44.62 2.9281 26.834 3.6569 53.671 2.1954 80.836-8.5122 158.21-64.666 288.94-142.46 331.67-13.877 7.6206-28.98 13.135-42.369 15.47-13.891 2.4224-39.003 2.4512-51.936 0.059zm-331.65-2.0544c-57.002-5.109-104.48-24.638-144.09-59.276-42.739-37.365-77.989-99.739-91.467-161.85-5.988-27.595-7.9912-48.474-10.098-105.26-1.0923-29.433-2.8414-58.195-4.0392-66.421-9.4331-64.779-37.963-106.09-103.05-149.2l-9.7259-6.4429 7.7259-2.4223c11.831-3.7094 36.838-8.7388 52.251-10.509 23.39-2.686 79.798-0.95428 108.14 3.32 103.51 15.609 210.39 58.924 293.53 118.96 47.045 33.97 88.542 76.463 112.3 114.99l5.9303 9.6187-16.304 16.257c-17.81 17.758-25.118 27.565-32.862 44.098-16.934 36.156-17.126 82.976-0.5484 134.1 2.4861 7.6669 4.3324 14.128 4.1029 14.357s-2.4057-3.3435-4.8362-7.9399c-48.837-92.36-109.18-166.79-182.64-225.28-18.737-14.917-60.209-43.749-62.929-43.749-0.3643 0 8.6956 9.4633 20.133 21.029 55.331 55.953 98.746 110.76 133.86 168.97 12.688 21.035 33.238 62.435 41.367 83.333 11.493 29.548 20.726 65.367 21.289 82.588l0.281 8.5883-12 3.7593c-36.641 11.479-90.389 17.596-126.31 14.376zm172.93-101.4c-0.4834-0.7821-0.5929-1.708-0.2434-2.0575s0.9907 0.2905 1.425 1.4221c0.9015 2.3495 0.133 2.7627-1.1816 0.6354z" stroke-width="1.3333"/>
</g>
</svg>
