<?xml version="1.0" encoding="UTF-8" standalone="no"?>
<svg
   xmlns:dc="http://purl.org/dc/elements/1.1/"
   xmlns:cc="http://creativecommons.org/ns#"
   xmlns:rdf="http://www.w3.org/1999/02/22-rdf-syntax-ns#"
   xmlns:svg="http://www.w3.org/2000/svg"
   xmlns="http://www.w3.org/2000/svg"
   version="1.1"
   id="svg2"
   width="298.06299"
   height="297.36508"
   viewBox="0 0 298.06299 297.36508">
  <metadata
     id="metadata8">
    <rdf:RDF>
      <cc:Work
         rdf:about="">
        <dc:format>image/svg+xml</dc:format>
        <dc:type
           rdf:resource="http://purl.org/dc/dcmitype/StillImage" />
        <dc:title></dc:title>
      </cc:Work>
    </rdf:RDF>
  </metadata>
  <defs
     id="defs6" />
  <g
     id="g10"
     transform="translate(-555.76797,-102.21917)">
    <path
       style="fill:#000000"
       d="m 697.74072,396.26067 c -11.64829,-7.11498 -137.56851,-90.00739 -139.69117,-91.95772 -2.67842,-2.46098 -3.03663,-8.15063 -0.72126,-11.45628 1.83396,-2.61834 7.44558,-3.88172 10.34627,-2.32932 1.14708,0.61389 32.26004,20.90509 69.13992,45.09153 36.87988,24.18645 67.47316,43.97536 67.98507,43.97536 0.51191,0 31.10519,-19.78891 67.98507,-43.97536 36.87988,-24.18644 67.99284,-44.47764 69.13992,-45.09153 2.90069,-1.5524 8.51231,-0.28902 10.34627,2.32932 2.31507,3.30523 1.95699,8.99474 -0.72126,11.46001 -2.11952,1.95098 -128.00168,84.8154 -139.69117,91.95449 -2.99265,1.82769 -6.16912,3.32307 -7.05883,3.32307 -0.88971,0 -4.06618,-1.4956 -7.05883,-3.32357 z m 1.83397,-47.23523 c -5.4413,-2.95289 -6.45403,-9.48958 -2.13878,-13.80484 5.73622,-5.73621 17.36364,-2.00916 17.36364,5.56575 0,3.98642 -1.50462,6.49036 -4.97998,8.28754 -3.6322,1.87828 -6.7214,1.86367 -10.24488,-0.0485 z m -25.38716,-16.85136 c -7.0911,-3.13825 -9.47316,-9.66924 -5.41048,-14.8341 2.60438,-3.31094 6.07336,-3.86017 10.85622,-1.71882 7.08073,3.17014 9.2522,9.51707 4.91628,14.36967 -2.85268,3.19261 -6.39491,3.93895 -10.36202,2.18325 z m 53.96902,0.41858 c -4.9335,-1.99092 -6.81034,-8.48847 -3.7245,-12.89413 2.09651,-2.99318 8.71476,-5.96173 11.92379,-5.34828 3.35812,0.64195 6.44371,4.79852 6.44371,8.68029 0,3.73521 -2.86001,7.17944 -7.6095,9.1639 -3.76709,1.57399 -4.07652,1.59151 -7.0335,0.39822 z m -82.857,-19.1754 c -4.53646,-2.50903 -6.5,-5.16277 -6.5,-8.78483 0,-9.87244 11.1635,-12.01226 17.9117,-3.43331 2.781,3.53546 2.63293,6.58441 -0.50059,10.30839 -2.78069,3.30466 -7.04087,4.05031 -10.91111,1.90975 z m 108.08889,-1.90975 c -3.13352,-3.72398 -3.28159,-6.77293 -0.50059,-10.30839 4.65993,-5.92415 13.03856,-7.12725 16.38296,-2.35245 2.31677,3.30765 1.95796,8.998 -0.72126,11.43829 -5.84789,5.32639 -11.3356,5.76891 -15.16111,1.22255 z m -52.96937,-9.07639 c -7.9206,-4.60079 -142.39445,-93.33329 -143.36952,-94.60231 -2.08138,-2.70883 -1.54238,-8.6255 1,-10.97712 1.2375,-1.14466 33.975,-22.90511 72.75,-48.35658 59.08891,-38.78528 71.06651,-46.27548 74,-46.27594 2.93428,-4.7e-4 14.89517,7.47866 74,46.27212 38.775,25.44997 71.5125,47.21068 72.75,48.35713 2.54227,2.35521 3.08105,8.27158 1,10.98099 -1.06847,1.39109 -138.1143,91.7387 -143.64918,94.70087 -2.50827,1.34239 -6.07128,1.30073 -8.4813,-0.0992 z m -83.11952,-7.34196 c -4.47471,-2.33419 -6.5,-5.27597 -6.5,-9.44139 0,-7.26794 7.49341,-10.39384 14.51431,-6.05469 10.46264,6.46627 2.8591,21.16811 -8.01431,15.49608 z m 166.74901,0.46355 c -1.23804,-0.49761 -2.9935,-2.46182 -3.90102,-4.36491 -1.3958,-2.92703 -1.45456,-3.93207 -0.38135,-6.52302 2.72108,-6.56926 12.59072,-9.30952 16.92258,-4.69846 4.39916,4.68269 2.38446,11.83657 -4.21546,14.96844 -3.87613,1.83935 -5.15297,1.933 -8.42475,0.61795 z M 587.10662,275.50532 c -1.85073,-1.18547 -3.67209,-3.49708 -4.33279,-5.49901 -0.96493,-2.92375 -0.85228,-3.94619 0.734,-6.66228 2.54918,-4.3648 6.84179,-5.54166 11.73822,-3.21815 6.8824,3.26591 8.99713,10.22833 4.54585,14.9665 -2.93471,3.12386 -8.18621,3.29481 -12.68528,0.41294 z m 222.70058,-0.41294 c -4.45128,-4.73817 -2.33655,-11.70059 4.54585,-14.9665 4.89643,-2.32351 9.18904,-1.14665 11.73822,3.21815 1.58986,2.72221 1.70011,3.73494 0.72746,6.6821 -2.30678,6.98961 -12.38495,9.99102 -17.01153,5.06625 z M 560.57469,258.07486 c -3.41352,-1.91436 -4.77514,-4.40956 -4.77514,-8.75056 0,-7.32327 8.75174,-10.34417 14.92327,-5.15117 5.7837,4.86666 3.40048,13.94866 -3.92327,14.95091 -2.11577,0.28954 -4.57767,-0.12541 -6.22486,-1.04918 z m 279.54023,0.5024 c -2.83436,-1.14199 -4.31537,-4.00367 -4.31537,-8.33838 0,-2.65481 0.72744,-4.08896 3.07673,-6.06575 6.23973,-5.25039 14.92327,-2.1715 14.92327,5.2913 0,4.30209 -1.42951,6.77344 -4.97998,8.60946 -3.25296,1.68217 -5.46189,1.80991 -8.70465,0.50337 z"
       id="path837" />
  </g>
</svg>
