<?xml version="1.0" encoding="UTF-8"?>
<!-- Created with Inkscape (http://www.inkscape.org/) -->
<svg width="834.99" height="535.28" version="1.1" viewBox="0 0 834.99 535.28" xmlns="http://www.w3.org/2000/svg">
 <g transform="translate(17.629 -288.51)">
  <path d="m160.95 818.54c0.36061-2.8886 1.2762-7.7091 2.0347-10.712 0.7585-3.003 1.3791-6.914 1.3791-8.691 0-1.7769 0.45-3.509 1-3.8489s1-2.7665 1-5.3923c0-2.6259 0.3375-5.1074 0.75-5.5145 0.67779-0.6689 2.4114-9.5542 3.9205-20.093 0.315-2.2 0.8901-4.225 1.278-4.5 0.3879-0.275 1.2444-4.1 1.9033-8.5 0.65893-4.4 1.4398-9.575 1.7352-11.5s0.91887-4.4 1.3855-5.5c0.80142-1.8892 2.6766-11.797 3.6908-19.5 0.25344-1.925 0.84702-4.4 1.3191-5.5s1.1319-3.575 1.4663-5.5c2.1104-12.148 3.1436-16.925 3.8028-17.585 0.41177-0.4118 0.74489-1.6862 0.74027-2.832-0.0121-2.9919 3.3676-16.021 4.2584-16.417 0.4125-0.1833 0.75-1.4208 0.75-2.75s0.40122-2.4167 0.89159-2.4167c0.49038 0 1.174-1.125 1.519-2.5 0.34511-1.375 1.0689-2.5 1.6084-2.5s0.98095-0.4696 0.98095-1.0435c0-0.9488 5.6871-7.671 8.7608-10.355 0.69343-0.6056 3.003-2.7886 5.1324-4.8511 2.1294-2.0625 4.1692-3.75 4.5329-3.75s1.8746-1.125 3.3574-2.5c1.4829-1.375 3.2257-2.5 3.873-2.5s1.3269-0.3844 1.5102-0.8542c0.3792-0.9718 14.302-9.6306 20.333-12.646 2.2-1.0998 4.225-2.2247 4.5-2.4997 0.55891-0.5589 7.0881-3.7313 20.5-9.9606 4.95-2.2991 9.7814-4.5985 10.736-5.1098 0.95504-0.5112 2.4175-0.9296 3.25-0.9296s1.5136-0.45 1.5136-1 0.57491-1 1.2776-1c1.381 0 9.4939-4.0793 16.722-8.4082 2.475-1.4822 5.7375-3.2203 7.25-3.8626 1.5125-0.6422 2.75-1.519 2.75-1.9484s0.68394-0.7808 1.5199-0.7808 3.302-1.125 5.4801-2.5 4.623-2.5 5.4331-2.5c1.8767 0 3.554-5.9394 3.5613-12.611l6e-3 -5.1106 18-2.6669v-5.7567c-4.2e-4 -7.8748-1.8038-15.855-3.5833-15.855-0.77943 0-1.4171-0.45-1.4171-1s-0.4539-1-1.0087-1c-1.5669 0-6.9913-5.1715-6.9913-6.6653 0-0.7341-0.34015-1.3347-0.75589-1.3347-1.2857 0-6.2441-12.359-6.2441-15.563 0-1.2754-0.45-2.597-1-2.9369s-1-3.2546-1-6.4772c0-7.0431-0.64799-9.0228-2.9534-9.0228-2.8678 0-7.8724-2.9435-9.8798-5.8109-2.3096-3.2991-3.0595-6.3313-4.1956-16.964-0.48627-4.5512-1.2147-8.8097-1.6187-9.4634-0.75263-1.2178-2.0554-7.2781-3.0307-14.098-0.31837-2.2265-0.0814-4.304 0.56468-4.95 0.61231-0.6123 1.1133-1.832 1.1133-2.7104 0-0.8783 1.8-3.3547 4-5.5029 4.5028-4.3968 4.5335-4.5018 2.5943-8.8489-0.77311-1.7331-2.1707-5.4011-3.1058-8.1511-0.93506-2.75-2.0818-5.9-2.5482-7-2.6918-6.3481-3.0802-10.824-2.5598-29.5 0.58774-21.09 1.3723-30.926 2.5921-32.5 0.42625-0.55 1.0828-3.127 1.4589-5.7267 0.37616-2.5997 1.1079-4.9887 1.6262-5.309s0.94222-1.6808 0.94222-3.0233c0-1.3426 0.40122-2.441 0.89159-2.441 0.49038 0 1.1734-1.1228 1.5178-2.4952 0.34444-1.3723 2.7557-4.659 5.3584-7.3037 4.6785-4.7541 10.323-7.2011 16.61-7.2011 2.0781 0 2.3493-0.46643 2.3493-4.0404 0-2.857 0.68371-4.7682 2.3343-6.5251 2.8919-3.0783 10.547-7.4345 13.064-7.4345 1.0307 0 1.874-0.34472 1.874-0.76605 0-0.67254 8.3146-2.803 19-4.8683 5.3783-1.0396 32.761-0.74863 39.5 0.41966 7.7345 1.3408 15.464 3.1163 18 4.1344 1.1 0.44169 3.7028 1.5404 5.7839 2.4417 2.0812 0.90124 4.4437 1.6386 5.25 1.6386s1.4661 0.39752 1.4661 0.88337 0.7875 1.1478 1.75 1.471c3.2149 1.0795 12.337 7.7355 17.401 12.697 4.7019 4.6065 10.641 15.274 12.498 22.449 0.28476 1.1 0.88821 2.9 1.341 4 2.1503 5.2239 3.5098 24.591 3.5098 50 0 14.85-0.225 29.229-0.5 31.953-0.48273 4.7822-0.3964 4.9888 2.5 5.9839 4.3265 1.4865 7.3466 5.3572 8.1 10.381 0.72241 4.8174-0.15825 15.946-1.5391 19.45-0.48381 1.2276-1.6533 4.9319-2.5988 8.2319s-2.1113 6.4275-2.5906 6.95-0.87145 1.9475-0.87145 3.1667-0.3375 2.3667-0.75 2.55-1.65 2.1333-2.75 4.3333c-2.1271 4.2542-5.1932 7.412-7.25 7.4668-0.6875 0.018-1.25 0.532-1.25 1.1416 0 0.6658-0.94349 0.8716-2.3625 0.5155-2.2318-0.5602-2.3958-0.2758-2.9645 5.1416-1.1655 11.104-2.8316 20.745-3.7473 21.684-0.50915 0.5225-0.92573 1.985-0.92573 3.25s-0.45 2.3-1 2.3-1.0022 0.5625-1.0048 1.25c-7e-3 1.7069-5.9246 7.9479-9.0822 9.5778-2.4037 1.2408-2.5218 1.634-1.8023 6 0.42353 2.5697 0.79687 7.4125 0.82966 10.762l0.0596 6.0896 7.25 1.2643c3.9875 0.6953 7.8125 1.4284 8.5 1.629 0.84587 0.2468 1.25 2.6228 1.25 7.3491 0 8.5805 1.1865 11.358 5.8676 13.734 1.9978 1.0143 3.8574 2.0795 4.1324 2.3672 1.3975 1.4621 6.118 3.9769 7.4648 3.9769 0.84435 0 1.5352 0.45 1.5352 1s0.4377 1 0.97266 1c0.83475 0 9.3439 3.5892 14.027 5.9168 1.6262 0.8082 20.008 6.532 26.5 8.2516 2.2 0.5828 4.9 1.4107 6 1.8398 1.1 0.4292 4.25 1.5458 7 2.4815 7.1192 2.4224 26.107 11.076 27.5 12.533 0.275 0.2877 1.7672 1.3301 3.316 2.3163 4.9676 3.1633 13.521 11.028 18.184 16.72 2.5582 3.1224 5.5113 11.508 5.505 15.632-3e-3 1.755 0.39752 3.4397 0.88942 3.7437 0.4919 0.3041 1.1212 2.2431 1.3984 4.3091 0.64032 4.7722 2.472 12.163 3.657 14.756 0.50269 1.1 1.137 3.35 1.4095 5 0.99965 6.0519 2.7466 13.045 3.6812 14.736 0.52778 0.955 0.95959 2.8463 0.95959 4.2029s0.41758 3.5002 0.92797 4.7636c0.51038 1.2634 1.6722 5.897 2.5819 10.297s2.0671 8.7814 2.572 9.7365c0.50494 0.955 0.91807 2.4656 0.91807 3.3569 0 2.139 2.986 15.358 4.045 17.907 0.45701 1.1 1.0314 3.575 1.2764 5.5 0.65068 5.1121 2.806 15.187 3.7436 17.5 0.44597 1.1 1.0182 3.575 1.2716 5.5 1.014 7.7023 2.8893 17.611 3.6906 19.5 0.97559 2.3004 2.0709 12.262 2.3091 21l0.16352 6-469.57 0.5042 0.65564-5.2521zm479.41-59.931c0-1.7484-0.4133-4.5609-0.91844-6.25-0.94185-3.1492-2.9318-12.725-3.7556-18.071-0.25423-1.65-0.82402-3.9-1.2662-5-0.44218-1.1-1.586-5.6-2.5417-10-0.95576-4.4-2.0802-8.9-2.4987-10-0.69588-1.829-4.0437-14.988-5.9786-23.5-1.8932-8.3285-3.3371-13.618-4.1589-15.236-0.48503-0.955-0.88187-2.7775-0.88187-4.05s-0.43731-2.7509-0.97181-3.2854-1.2754-4.2387-1.6465-8.2315c-0.3711-3.9929-1.0588-7.4971-1.5282-7.7872s-0.85347-1.5797-0.85347-2.8658c0-5.0187-7.3119-16.834-15.5-25.046-4.4-4.4128-9.0504-8.8332-10.334-9.823-4.469-3.4455-15.211-9.675-16.683-9.675-0.81532 0-1.4824-0.3438-1.4824-0.7641 0-0.8031-7.2992-4.2359-9.0069-4.2359-0.54623 0-0.99314-0.4187-0.99314-0.9304 0-0.5118-1.0125-1.0743-2.25-1.25-1.446-0.2054-2.3642-1.1236-2.5696-2.5696-0.17575-1.2375 0.082-2.25 0.57274-2.25 0.49077 0 1.9334-2.0846 3.2059-4.6324 2.2589-4.523 10.063-13.368 11.794-13.368 0.47818 0 1.7418-0.8041 2.808-1.787s3.4011-2.3875 5.1886-3.1213l3.25-1.3343v-9.6381c0-10.795-0.3445-11.367-7.6269-12.681-2.1302-0.3843-4.3231-1.0078-4.8731-1.3856-0.55-0.3777-3.7-1.5023-7-2.499s-7.0337-2.204-8.297-2.6828-3.1759-0.8706-4.25-0.8706-1.953-0.3925-1.953-0.8722-1.7039-1.1446-3.7864-1.4776-6.02-1.7387-8.75-3.1237c-2.73-1.3849-5.5261-2.52-6.2136-2.5223-0.6875 0-1.25-0.4542-1.25-1.0042s0.40122-1 0.89159-1c0.49038 0 1.174-1.125 1.519-2.5 0.34511-1.375 1.0689-2.5 1.6084-2.5s0.98095-1.125 0.98095-2.5 0.45-2.5 1-2.5 1-0.8909 1-1.9797c0-1.0889 0.73133-3.8076 1.6252-6.0415 1.8957-4.7378 1.2949-6.1066-1.3036-2.9703-6.1219 7.3889-17.322 17.288-17.322 15.31 0-0.5053 0.41331-1.3462 0.91847-1.8687 1.4964-1.5478 9.0815-16.687 9.0815-18.126 0-0.7282 0.45-1.324 1-1.324s1-0.4945 1-1.0988c0-1.0682 2.2457-6.6485 4.0714-10.117 1.1384-2.1629 2.9684-9.2029 3.583-13.784 0.25827-1.925 0.84506-4.4 1.304-5.5 0.89939-2.1558 2.8993-16.091 4.1621-29 0.43039-4.4 1.2058-10.7 1.7232-14 0.51735-3.3 1.4804-10.275 2.1402-15.5 0.65975-5.225 1.5754-10.4 2.0348-11.5s1.0947-4.025 1.4118-6.5c1.0146-7.9197 3.0485-17.812 3.8209-18.585 0.41177-0.4117 0.74867-1.8048 0.74867-3.0956 0-1.2907 0.41264-3.1282 0.91699-4.0833 0.50434-0.955 2.8549-5.6739 5.2235-10.486s4.6559-8.75 5.083-8.75c0.42708 0 0.77652-0.5124 0.77652-1.1387 0-1.547 10.186-11.81 11.75-11.838 0.6875-0.013 1.25-0.3743 1.25-0.8037s1.2375-1.3118 2.75-1.9609 5.1748-2.5477 8.1384-4.2192c2.9636-1.6715 6.0011-3.0391 6.75-3.0391 0.7489 0 1.3616-0.39893 1.3616-0.8865 0-0.48758 1.2375-1.1301 2.75-1.4278 4.7568-0.93632 11.659-2.9098 14.061-4.0205 3.213-1.4855 28.912-1.3418 30.424 0.17012 0.64057 0.64057 2.1906 1.1647 3.4444 1.1647 2.4821 0 7.8587 1.873 16.098 5.6077 2.9025 1.3158 5.715 2.3923 6.25 2.3923 0.53496 0 0.97266 0.3975 0.97266 0.8834 0 0.4858 0.7875 1.1319 1.75 1.4357 5.3769 1.6973 20.25 13.896 20.25 16.609 0 0.5109 0.57378 1.5235 1.2751 2.2503 2.4979 2.5887 10.65 20.507 11.318 24.876 0.37377 2.445 1.0199 4.8954 1.4358 5.4454 0.4159 0.55 0.99744 3.025 1.2923 5.5 0.29488 2.475 1.2809 8.775 2.1911 14 2.2976 13.19 5.297 33.543 7.5156 51 1.9954 15.701 4.3738 27.923 6.0784 31.236 0.49135 0.955 0.89613 2.53 0.89952 3.5 3e-3 0.9699 0.67839 3.0525 1.5 4.6278 0.82161 1.5754 1.4938 3.4879 1.4938 4.25 0 0.7622 0.45 1.3857 1 1.3857s1 0.5561 1 1.2357 1.1926 3.7171 2.6502 6.75 3.8201 7.9893 5.25 11.014 3.0368 5.8131 3.5709 6.1957c0.53407 0.3825 0.68935 0.9773 0.34506 1.3216-0.96596 0.9659-10.961-8.0567-17.22-15.544l-2.9035-3.4736 0.71393 4c1.3078 7.3272 4.6077 16.034 6.633 17.5 0.37979 0.275 1.0072 1.5147 1.3943 2.755 0.52645 1.6868 0.2455 2.4069-1.1152 2.8581-1.0004 0.3318-3.7646 1.4725-6.1426 2.5348-2.378 1.0624-5.6498 2.1968-7.2708 2.521-1.621 0.3242-3.1894 0.9813-3.4854 1.4603-0.29601 0.4789-1.6428 0.8708-2.9928 0.8708-1.35 0-3.2359 0.413-4.191 0.9178-1.8359 0.9704-14.907 5.1544-21.87 7.0006-6.0944 1.6159-6.4602 2.4544-5.7059 13.081 0.6423 9.0489 0.73512 9.3238 3.4996 10.367 1.5619 0.5895 2.8398 1.4232 2.8398 1.8527 0 0.4294 0.48002 0.7807 1.0667 0.7807 1.1905 0 7.3382 4.4222 10.426 7.5 1.1037 1.1 2.9068 3.7932 4.0068 5.9848s2.5625 4.5862 3.25 5.3214 1.25 1.6878 1.25 2.1169c0 1.8477 6.1243 6.9568 9.6544 8.0541 3.9064 1.2142 7.6993 2.7932 14.783 6.1544 2.1658 1.0277 4.5283 1.8684 5.25 1.8684s1.3122 0.4415 1.3122 0.981 1.125 1.2633 2.5 1.6084 2.5 0.9648 2.5 1.3771c0 1.1072 9.8732 6.0335 12.092 6.0335 1.0492 0 1.9077 0.3477 1.9077 0.7727 0 0.8638 7.5032 3.0702 13.256 3.8981 2.066 0.2972 4.005 0.943 4.309 1.4349 0.30402 0.4919 1.6712 0.8943 3.0382 0.8943s5.503 0.737 9.191 1.6377c7.2516 1.771 16.553 7.7296 17.698 11.338 0.35337 1.1134 1.0622 2.0243 1.5751 2.0243 0.51293 0 0.93261 0.675 0.93261 1.5s0.3375 1.5029 0.75 1.5063c0.9811 0.01 4.25 5.7703 4.25 7.4914 0 0.7346 0.52531 1.5108 1.1674 1.7248 1.2288 0.4096 2.3222 16.852 3.4428 51.778 0.32648 10.175 0.99776 18.928 1.4917 19.45s0.89814 10.085 0.89814 21.25v20.3h-177zm-656-13.262c0-2.4425-0.45-4.7191-1-5.059-1.2492-0.772-1.3475-24.73-0.10691-26.05 0.4912-0.5225 1.1613-6.125 1.4892-12.45 0.64639-12.47 2.6658-27.398 3.8677-28.59 0.4125-0.409 0.75-1.8217 0.75-3.1391 0-2.5738 2.5502-11.659 4.0722-14.508 0.5103-0.955 0.92783-2.3811 0.92783-3.169s0.65552-2.7065 1.4567-4.2635c0.80119-1.5571 2.036-4.2936 2.7441-6.0811 0.70806-1.7875 1.5478-3.25 1.866-3.25s1.614-2.073 2.8793-4.6067c2.8921-5.7908 15.257-18.4 20.554-20.96 2.2-1.0633 4.15-2.2707 4.3333-2.6832s0.74804-0.75 1.2549-0.75c0.50687 0 3.2536-1.125 6.1038-2.5s5.773-2.5 6.4951-2.5 1.3128-0.4447 1.3128-0.9882 1.81-1.2776 4.0222-1.6313c2.2122-0.3538 4.2638-1.0341 4.559-1.5118 0.29527-0.4778 1.4164-0.8687 2.4914-0.8687 1.075 0 2.736-0.394 3.691-0.8755 0.95503-0.4816 4.4364-1.6889 7.7364-2.6828 3.3-0.994 6.45-2.0807 7-2.4148s3.5875-1.4499 6.75-2.4796 5.75-2.249 5.75-2.7097 1.0125-0.8519 2.25-0.8694c1.2375-0.017 3.1235-0.6925 4.1911-1.5s2.7551-1.4682 3.75-1.4682 1.8089-0.45 1.8089-1 0.68111-1 1.5136-1 2.295-0.4282 3.25-0.9515c0.95504-0.5234 3.5364-1.7374 5.7364-2.6979s4.225-2.0072 4.5-2.3261c0.275-0.3188 2.525-1.4548 5-2.5245 2.475-1.0696 4.725-2.1822 5-2.4724 0.65136-0.6873 10.984-5.6831 13.25-6.4063 0.9625-0.3072 1.75-1.4726 1.75-2.5899s0.40469-2.0314 0.89931-2.0314c0.49461 0 1.1407-1.9125 1.4357-4.25 0.29502-2.3375 1.2684-7.85 2.163-12.25 2.9555-14.536 2.9529-14.101 0.10372-17.174-1.4309-1.5432-2.6017-3.3729-2.6017-4.0661 0-0.6931-0.40122-1.2602-0.89159-1.2602-0.49038 0-1.174-1.125-1.519-2.5-0.34511-1.375-1.0689-2.5-1.6084-2.5s-0.98095-0.675-0.98095-1.5-0.45-1.5-1-1.5-1-0.718-1-1.5957c0-0.8776-0.63575-2.7901-1.4128-4.25-2.6915-5.0566-5.6694-12.315-6.2561-15.249-0.3242-1.621-0.98132-3.1894-1.4603-3.4854s-0.87084-1.6799-0.87084-3.0753-0.70693-4.9688-1.571-7.941c-1.4249-4.9013-1.8351-5.4039-4.4111-5.4039-3.1168 0-7.6814-4.4932-8.4595-8.3271-1.8647-9.1879-2.6546-16.924-2.8415-27.827-0.23318-13.604-0.1835-13.751 5.8928-17.42 1.5763-0.9515 1.6303-1.4324 0.47428-4.2233-1.8366-4.4339-2.1292-48.55-0.33401-50.35 0.6875-0.6891 1.25-2.0214 1.25-2.9606 0-6.0779 13.692-22.869 22.75-27.9 2.3375-1.2983 4.25-2.6788 4.25-3.0679s1.125-0.9899 2.5-1.335 2.5-1.0688 2.5-1.6084c0-0.5395 0.675-0.9809 1.5-0.9809s1.5-0.4197 1.5-0.9326c0-0.513 0.82067-1.1931 1.8237-1.5115 1.003-0.3183 2.704-1.3611 3.7799-2.3174 1.0759-0.95617 3.5178-2.616 5.4263-3.6884s4.3701-2.7967 5.4701-3.8317c1.1-1.035 2.7875-2.3109 3.75-2.8353 1.5496-0.84425 1.75-0.43404 1.75 3.5817 0 2.4944 0.23023 4.5352 0.51163 4.5352 0.28139 0 5.2715-4.7599 11.089-10.578 5.8176-5.8176 10.857-10.298 11.198-9.9571s0.73339 3.5226 0.87149 7.0697 0.82815 7.4653 1.5334 8.7071l1.2824 2.2578 0.32343-2.75c0.37174-3.1607 2.2104-3.5096 6.5549-1.2438 1.5754 0.82161 3.4879 1.4938 4.25 1.4938s1.3857 0.35094 1.3857 0.77986 2.25 1.653 5 2.7201 5 2.1904 5 2.496 2.0207 1.4441 4.4905 2.5299c2.4698 1.0857 4.4948 2.3116 4.5 2.7241 5e-3 0.4125 0.4705 0.75 1.034 0.75 1.2701 0 14.351 8.1416 14.809 9.2171 0.18334 0.4306 0.89134 0.7829 1.5733 0.7829 2.2026 0 13.337 11.661 15.277 16 0.36888 0.825 0.93222 1.725 1.2519 2 1.2227 1.0519 4.0744 10.646 4.0697 13.691-3e-3 1.755 0.50417 3.5056 1.1264 3.8902 1.1108 0.6865 0.80959 16.487-0.73243 38.419l-0.59763 8.5 3.5994 1.9075c1.9796 1.0491 3.5993 2.5116 3.5993 3.25 0 0.7383 0.39891 1.3425 0.88646 1.3425 1.6059 0 2.0723 8.3108 1.1504 20.5-0.49917 6.6-1.211 13.45-1.5818 15.223-0.80578 3.8522-4.9387 8.2768-7.7312 8.2768-2.4664 0-4.6496 2.7153-4.6921 5.8359-0.0437 3.2088-3.356 15.587-4.2809 15.998-0.41302 0.1833-0.75094 1.3348-0.75094 2.5588 0 1.2241-0.66069 3.0991-1.4682 4.1667-0.8075 1.0676-1.4825 2.4664-1.5 3.1085-0.0812 2.9819-10.37 18.649-17.775 27.068-1.588 1.8054-1.8755 3.248-1.4944 7.5 0.25955 2.8955 0.86913 5.6921 1.3546 6.2146 0.48549 0.5225 0.88271 2.515 0.88271 4.4277 0 1.9128 0.74183 6.6663 1.6485 10.564l1.6485 7.0859 14.101 6.9565c7.7558 3.8262 15.603 7.8248 17.437 8.8859l3.3358 1.9294-3.8358 1.4163c-2.1097 0.7789-4.6233 1.6642-5.5858 1.9672s-1.75 0.9484-1.75 1.4343c0 0.4858-1.125 0.8833-2.5 0.8833s-2.5 0.45-2.5 1-0.5625 1.0101-1.25 1.0224c-0.6875 0.012-3.95 1.3523-7.25 2.9776-3.3 1.6254-6.5625 2.9653-7.25 2.9776-0.6875 0.012-1.25 0.3626-1.25 0.7783 0 0.4158-1.4625 1.3771-3.25 2.1363s-6.0515 3.1191-9.4755 5.2441c-3.424 2.1251-6.5169 3.8637-6.873 3.8637-0.70743 0-11.573 7.6599-15.096 10.642-1.2069 1.0217-3.4569 2.8595-5 4.084-5.1245 4.0664-8.7828 7.7164-13.304 13.274-2.4609 3.025-4.7056 5.725-4.9882 6s-1.0042 1.4-1.6037 2.5c-0.59949 1.1-2.268 4.1196-3.7079 6.7101-3.2668 5.8775-7.7021 18.575-7.7021 22.05 0 1.4354-0.44114 3.77-0.9803 5.1881-0.53917 1.4181-1.48 5.3849-2.0907 8.8151-1.2116 6.8048-2.0072 10.605-4.4463 21.237-0.88325 3.85-2.0004 8.8-2.4826 11s-1.603 7.15-2.4906 11c-0.88766 3.85-1.9763 9.025-2.4193 11.5-1.5955 8.9152 8.2656 8-86.197 8h-83.893z"/>
 </g>
</svg>
